<?xml version="1.0" encoding="utf-8"?>
<!-- Generator: Adobe Illustrator 23.0.3, SVG Export Plug-In . SVG Version: 6.00 Build 0)  -->
<svg version="1.1" id="Layer_1" xmlns="http://www.w3.org/2000/svg" xmlns:xlink="http://www.w3.org/1999/xlink" x="0px" y="0px"
	 viewBox="0 0 255 71" style="enable-background:new 0 0 255 71;" xml:space="preserve">
<style type="text/css">
	.st0{fill:#FFFFFF;}
</style>
<g>
	<path class="st0" d="M171.5,33.5h-0.9V37h0.9c1,0,1.9-0.8,1.9-1.7C173.4,34.3,172.5,33.5,171.5,33.5z"/>
	<path class="st0" d="M82.6,33.2h-1.3v2.1h1.3c0.6,0,1.1-0.5,1.1-1.1C83.8,33.6,83.3,33.2,82.6,33.2z"/>
	<path class="st0" d="M208.3,33.5c-1,0-1.9,0.8-1.9,1.8c0,1,0.8,1.8,1.9,1.8c1,0,1.9-0.8,1.9-1.8C210.1,34.2,209.3,33.5,208.3,33.5z
		"/>
	<path class="st0" d="M108.4,33.5c-1,0-1.9,0.8-1.9,1.8c0,1,0.8,1.8,1.9,1.8c1,0,1.9-0.8,1.9-1.8C110.3,34.2,109.5,33.5,108.4,33.5z
		"/>
	<path class="st0" d="M41.6,33.5h-0.9V37h0.9c1,0,1.9-0.8,1.9-1.7C43.5,34.3,42.6,33.5,41.6,33.5z"/>
	<path class="st0" d="M152.7,33.2h-1.3v2.1h1.3c0.6,0,1.1-0.5,1.1-1.1C153.8,33.6,153.3,33.2,152.7,33.2z"/>
	<polygon class="st0" points="143.2,36.3 144.8,36.3 144,34.7 	"/>
	<path class="st0" d="M71.6,33.2h-1.3v2.1h1.3c0.6,0,1.1-0.5,1.1-1.1C72.7,33.6,72.2,33.2,71.6,33.2z"/>
	<path class="st0" d="M217.1,33.2h-1.3v2.1h1.3c0.6,0,1.1-0.5,1.1-1.1C218.2,33.6,217.7,33.2,217.1,33.2z"/>
	<polygon class="st0" points="24.3,36.3 25.9,36.3 25.1,34.7 	"/>
	<path class="st0" d="M0,28v14.4h254.9V28H0z M5.1,38.9H3v-7.4h2.1V38.9z M13.4,38.9h-0.9l-3.7-3.5v3.5H6.7v-7.4h0.8l3.8,3.5v-3.5
		h2.1V38.9z M19.9,38.9H15v-7.4h2.1V37h2.9V38.9z M27.2,38.9l-0.5-1h-3.3l-0.5,1h-2.1l3.7-7.4h0.9l3.7,7.4H27.2z M37,38.9h-0.9
		l-3.7-3.5v3.5h-2.1v-7.4h0.8L35,35v-3.5H37V38.9z M41.6,38.9h-2.9v-7.4h2.9c2.2,0,4,1.6,4,3.7C45.6,37.2,43.8,38.9,41.6,38.9z
		 M56.7,33.1h-2.8v1.2h2.5V36h-2.5v1.4h2.8v1.6h-4.9v-7.4h4.9V33.1z M66.6,38.9h-2.1v-3.8l-2.1,1.8l-2.1-1.7v3.8h-2.1v-7.4h0.9
		l3.2,2.7l3.2-2.7h0.9V38.9z M71.6,36.9h-1.3v2h-2.1v-7.4h3.3c1.6,0,2.9,1.2,2.9,2.7C74.4,35.7,73.1,36.9,71.6,36.9z M77.6,38.9
		h-2.1v-7.4h2.1V38.9z M83.9,38.9l-1.2-2h-1.3v2h-2.1v-7.4h3.3c1.6,0,2.9,1.2,2.9,2.7c0,0.8-0.4,1.5-0.9,2l1.7,2.7H83.9z M92.2,33.1
		h-2.8v1.2h2.5V36h-2.5v1.4h2.8v1.6h-4.9v-7.4h4.9V33.1z M100.8,34.3c0.8,0,1.5,0.3,1.9,0.9c0.3,0.4,0.5,0.9,0.5,1.4
		c0,1.3-1.1,2.3-2.4,2.3s-2.4-1-2.4-2.3h1.9c0,0.3,0.3,0.6,0.6,0.6c0.3,0,0.6-0.2,0.6-0.5c0-0.3-0.3-0.6-0.6-0.6
		c-1.4,0-2.4-1-2.4-2.3c0-1.3,1.1-2.3,2.4-2.3s2.4,1,2.4,2.3h-1.8c0-0.3-0.3-0.6-0.6-0.6c-0.3,0-0.6,0.3-0.6,0.6
		C100.2,34.1,100.5,34.3,100.8,34.3z M108.4,38.9c-2.2,0-4-1.6-4-3.7c0-2,1.8-3.7,4-3.7c2.2,0,4,1.7,4,3.7
		C112.4,37.3,110.6,38.9,108.4,38.9z M118.9,33.1H116v1.2h2.6V36H116v2.9h-2.1v-7.4h5V33.1z M126.4,33.4h-2.1v5.5h-2.1v-5.5h-2.1
		v-1.9h6.3V33.4z M135,38.9l-1.3-2.6l-1.3,2.6h-1.5l-3.7-7.4h2.3l2.2,4.5l1.5-3.1h0.9l1.5,3.1l2.3-4.5h2.3l-3.7,7.4H135z
		 M146.1,38.9l-0.5-1h-3.3l-0.5,1h-2.1l3.7-7.4h0.9l3.7,7.4H146.1z M153.9,38.9l-1.2-2h-1.3v2h-2.1v-7.4h3.3c1.6,0,2.9,1.2,2.9,2.7
		c0,0.8-0.4,1.5-0.9,2l1.7,2.7H153.9z M162.3,33.1h-2.8v1.2h2.5V36h-2.5v1.4h2.8v1.6h-4.9v-7.4h4.9V33.1z M171.5,38.9h-2.9v-7.4h2.9
		c2.2,0,4,1.6,4,3.7C175.4,37.2,173.7,38.9,171.5,38.9z M181.8,33.1H179v1.2h2.5V36H179v1.4h2.8v1.6h-4.9v-7.4h4.9V33.1z
		 M187.3,38.9h-1l-3.7-7.4h2.1l2.1,4.2l2.1-4.2h2.1L187.3,38.9z M196.8,33.1H194v1.2h2.5V36H194v1.4h2.8v1.6h-4.9v-7.4h4.9V33.1z
		 M203.3,38.9h-4.9v-7.4h2.1V37h2.9V38.9z M208.3,38.9c-2.2,0-4-1.6-4-3.7c0-2,1.8-3.7,4-3.7c2.2,0,4,1.7,4,3.7
		C212.2,37.3,210.4,38.9,208.3,38.9z M217.1,36.9h-1.3v2h-2.1v-7.4h3.3c1.6,0,2.9,1.2,2.9,2.7C220,35.7,218.6,36.9,217.1,36.9z
		 M229.4,38.9h-2.1v-3.8l-2.1,1.8l-2.1-1.7v3.8h-2.1v-7.4h0.9l3.2,2.7l3.2-2.7h0.9V38.9z M236,33.1h-2.8v1.2h2.5V36h-2.5v1.4h2.8
		v1.6H231v-7.4h4.9V33.1z M244.2,38.9h-0.9l-3.7-3.5v3.5h-2.1v-7.4h0.8l3.8,3.5v-3.5h2.1V38.9z M251.9,33.4h-2.1v5.5h-2.1v-5.5h-2.1
		v-1.9h6.3V33.4z"/>
</g>
<g>
	<path class="st0" d="M203.1,26.4v-7.1h9.7c7,0,13.2,2.8,17,7.1h25.1c-5-14.9-22-25.8-42.2-25.8h-32.4v25.8H203.1z"/>
	<path class="st0" d="M230.9,43.9c-3.6,5.1-10.4,8.5-18.1,8.5h-9.7v-8.5h-22.9v26.6h32.4c20.5,0,37.8-11.4,42.5-26.6H230.9z"/>
</g>
<g>
	<path class="st0" d="M139.2,43.9c2.5,0.8,4.4,2.7,4.4,5c0,2.9-3,5.2-6.6,5.2c-3.6,0-6.5-2.3-6.5-5.3H110c0,12.3,12,21.7,26.9,21.7
		c14.9,0,26.9-9.5,26.9-21.5c0-1.8-0.3-3.5-0.7-5.2H139.2z"/>
	<path class="st0" d="M133.3,26.4c-1.8-0.9-2.9-2.5-2.9-4.4c0-2.9,2.9-5.3,6.5-5.3c3.6,0,6.6,2.4,6.6,5.3h20.3
		c0-11.9-12-21.5-26.9-21.5c-14.9,0-26.8,9.6-26.8,21.6c0,1.5,0.2,2.9,0.5,4.3H133.3z"/>
</g>
<g>
	<polygon class="st0" points="63.6,26.4 63.6,15.8 94.9,15.8 94.9,0.5 40.6,0.5 40.6,26.4 	"/>
	<polygon class="st0" points="63.6,43.9 40.6,43.9 40.6,70.5 94.9,70.5 94.9,55.5 63.6,55.5 	"/>
</g>
<g>
	<rect y="0.5" class="st0" width="23" height="25.8"/>
	<rect y="43.9" class="st0" width="23" height="26.6"/>
</g>
</svg>
