<?xml version="1.0" encoding="utf-8"?>
<!-- Generator: Adobe Illustrator 23.0.3, SVG Export Plug-In . SVG Version: 6.00 Build 0)  -->
<svg version="1.1" id="Layer_1" xmlns="http://www.w3.org/2000/svg" xmlns:xlink="http://www.w3.org/1999/xlink" x="0px" y="0px"
	 viewBox="0 0 270 270" style="enable-background:new 0 0 270 270;" xml:space="preserve">
<style type="text/css">
	.st0{fill:#E01E5A;}
	.st1{fill:#36C5F0;}
	.st2{fill:#2EB67D;}
	.st3{fill:#ECB22E;}
</style>
<g>
	<g>
		<path class="st0" d="M69.5,164.8c0,13.1-10.7,23.7-23.7,23.7S22,177.9,22,164.8c0-13.1,10.7-23.7,23.7-23.7h23.7V164.8z"/>
		<path class="st0" d="M81.4,164.8c0-13.1,10.7-23.7,23.7-23.7s23.7,10.7,23.7,23.7v59.4c0,13.1-10.7,23.7-23.7,23.7
			s-23.7-10.7-23.7-23.7C81.4,224.3,81.4,164.8,81.4,164.8z"/>
	</g>
	<g>
		<path class="st1" d="M105.2,69.5c-13.1,0-23.7-10.7-23.7-23.7S92.1,22,105.2,22s23.7,10.7,23.7,23.7v23.7H105.2z"/>
		<path class="st1" d="M105.2,81.4c13.1,0,23.7,10.7,23.7,23.7s-10.7,23.7-23.7,23.7H45.7c-13.1,0-23.7-10.7-23.7-23.7
			s10.7-23.7,23.7-23.7C45.7,81.4,105.2,81.4,105.2,81.4z"/>
	</g>
	<g>
		<path class="st2" d="M200.5,105.2c0-13.1,10.7-23.7,23.7-23.7c13.1,0,23.7,10.7,23.7,23.7s-10.7,23.7-23.7,23.7h-23.7V105.2z"/>
		<path class="st2" d="M188.6,105.2c0,13.1-10.7,23.7-23.7,23.7c-13.1,0-23.7-10.7-23.7-23.7V45.7c0-13.1,10.7-23.7,23.7-23.7
			c13.1,0,23.7,10.7,23.7,23.7V105.2z"/>
	</g>
	<g>
		<path class="st3" d="M164.8,200.5c13.1,0,23.7,10.7,23.7,23.7S177.9,248,164.8,248c-13.1,0-23.7-10.7-23.7-23.7v-23.7H164.8z"/>
		<path class="st3" d="M164.8,188.6c-13.1,0-23.7-10.7-23.7-23.7c0-13.1,10.7-23.7,23.7-23.7h59.4c13.1,0,23.7,10.7,23.7,23.7
			c0,13.1-10.7,23.7-23.7,23.7H164.8z"/>
	</g>
</g>
</svg>
