<?xml version="1.0" encoding="utf-8"?>
<!-- Generator: Adobe Illustrator 22.1.0, SVG Export Plug-In . SVG Version: 6.00 Build 0)  -->
<svg version="1.1" id="Layer_1" xmlns="http://www.w3.org/2000/svg" xmlns:xlink="http://www.w3.org/1999/xlink" x="0px" y="0px"
	 viewBox="0 0 8151.7 2228.6" style="enable-background:new 0 0 8151.7 2228.6;" xml:space="preserve">
<g>
	<path d="M0,2h730.5V2227H0V2z"/>
	<path d="M1290.4,2h1728v483.6h-997.5v361.9h882.5V1340h-882.5v409.4h997.5V2227h-1728V2z"/>
	<path d="M4564.7,684.4c0-92-96.4-169.1-211.4-169.1c-115,0-207.7,77.1-207.7,169.1s92.7,166.1,207.7,166.1
		c270.7,0,515.5,103.8,671.2,264.1c118.6,118.6,185.4,267,185.4,430.2c0,379.7-381.9,682.3-856.6,682.3s-856.6-299.6-856.6-691.3
		h648.9c0,95,92.7,169.1,207.7,169.1s211.4-74.2,211.4-166.1c0-92-96.4-169.1-211.4-169.1c-474.6,0-852.9-302.6-852.9-682.3
		S3878.7,2,4353.3,2s856.6,302.6,856.6,682.3L4564.7,684.4L4564.7,684.4z"/>
	<path d="M5729,2h1030.9c767.6,0,1390.6,498.4,1390.6,1112.6S7527.5,2227,6759.9,2227H5729V2z M6455.8,1651.5h307.8
		c363.4,0,660.1-237.3,660.1-528.1c0-287.8-296.7-525.1-660.1-525.1h-307.8V1651.5z"/>
</g>
</svg>
