<?xml version="1.0" encoding="utf-8"?>
<!-- Generator: Adobe Illustrator 23.0.3, SVG Export Plug-In . SVG Version: 6.00 Build 0)  -->
<svg version="1.1" id="Layer_1" xmlns="http://www.w3.org/2000/svg" xmlns:xlink="http://www.w3.org/1999/xlink" x="0px" y="0px"
	 viewBox="0 0 15149 4128" style="enable-background:new 0 0 15149 4128;" xml:space="preserve">
<style type="text/css">
	.st0{fill:#FFFFFF;}
</style>
<g>
	<path class="st0" d="M46.8,0h1350.9v4114.7H46.8V0z"/>
	<path class="st0" d="M2433,0h3195.5v894.3H3783.9v669.3h1632v910.7h-1632v757.1h1844.6v883.3H2433V0z"/>
	<path class="st0" d="M8488,1261.9c0-170.1-178.3-312.7-390.9-312.7c-212.6,0-384,142.6-384,312.7s171.4,307.2,384,307.2
		c500.6,0,953.2,192,1241.2,488.3c219.4,219.4,342.9,493.8,342.9,795.5c0,702.2-706.3,1261.8-1584,1261.8s-1584-554.1-1584-1278.3
		h1200c0,175.6,171.4,312.7,384,312.7c212.6,0,390.9-137.2,390.9-307.2c0-170.1-178.3-312.7-390.9-312.7
		c-877.7,0-1577.2-559.6-1577.2-1261.8S7219.4,0,8097.1,0s1584,559.6,1584,1261.8H8488z"/>
	<path class="st0" d="M10641.2,0h1906.3C13967,0,15119,921.7,15119,2057.4s-1152,2057.3-2571.5,2057.3h-1906.3V0z M11985.2,3050.4
		h569.2c672,0,1220.6-438.9,1220.6-976.5c0-532.2-548.6-971.1-1220.6-971.1h-569.2V3050.4z"/>
</g>
</svg>
