<?xml version="1.0" encoding="utf-8"?>
<!-- Generator: Adobe Illustrator 23.0.3, SVG Export Plug-In . SVG Version: 6.00 Build 0)  -->
<svg version="1.1" id="Layer_1" xmlns="http://www.w3.org/2000/svg" xmlns:xlink="http://www.w3.org/1999/xlink" x="0px" y="0px"
	 viewBox="0 0 15149 4128" style="enable-background:new 0 0 15149 4128;" xml:space="preserve">
<style type="text/css">
	.st0{stroke:#FFFFFF;stroke-width:50;stroke-miterlimit:10;}
	.st1{fill:#FFFFFF;}
</style>
<g>
	<path d="M64.1,15.1h1344.8v4096H64.1V15.1z"/>
	<path d="M2439.5,15.1h3181v890.2H3784.3v666.3h1624.6v906.6H3784.3v753.7h1836.3v879.3h-3181V15.1z"/>
	<path d="M8467.1,1271.2c0-169.3-177.5-311.3-389.1-311.3s-382.3,142-382.3,311.3s170.7,305.8,382.3,305.8
		c498.3,0,948.8,191.1,1235.5,486.1c218.4,218.5,341.3,491.5,341.3,791.9c0,699.1-703.1,1256.1-1576.9,1256.1
		s-1576.9-551.6-1576.9-1272.5h1194.6c0,174.8,170.7,311.3,382.3,311.3s389.1-136.5,389.1-305.8c0-169.3-177.5-311.3-389.1-311.3
		c-873.8,0-1570-557.1-1570-1256.1S7204.2,15.1,8078,15.1s1576.9,557.1,1576.9,1256.1H8467.1z"/>
	<path d="M10610.5,15.1h1897.7c1413,0,2559.8,917.5,2559.8,2048s-1146.8,2048-2559.8,2048h-1897.7V15.1z M11948.4,3051.6h566.6
		c669,0,1215.1-436.9,1215.1-972.1c0-529.7-546.1-966.7-1215.1-966.7h-566.6V3051.6z"/>
</g>
<rect x="25" y="1589.1" class="st0" width="15015.7" height="910.2"/>
<path class="st1" d="M239.5,1812h122.1V2277H239.5V1812z"/>
<path class="st1" d="M796.9,2277l-219.4-220.1V2277H455.3V1812h49.6L725,2031.5V1812h122.1V2277H796.9z"/>
<path class="st1" d="M940.9,1812h122.1v342.2h167.4V2277H940.9V1812z"/>
<path class="st1" d="M1287,2277l217-464.9h55.2L1778,2277h-122.1l-28.5-60.8h-190.3l-27.9,60.8H1287z M1484.8,2113.3h94.8
	l-47.1-102.3L1484.8,2113.3z"/>
<path class="st1" d="M2181.8,2277l-219.4-220.1V2277h-122.1V1812h49.6l220.1,219.5V1812H2232V2277H2181.8z"/>
<path class="st1" d="M2325.9,1812h172.4c128.3,0,232.4,104.1,232.4,232.5c0,128.3-104.1,232.4-232.4,232.4h-172.4V1812z
	 M2447.4,2155.5h51.5c60.7,0,110.3-49.6,110.3-110.3c0-60.1-49.6-109.7-110.3-109.7h-51.5V2155.5z"/>
<path class="st1" d="M3094.3,1812h288.9v101.1h-166.7v75.6H3364v102.9h-147.5v85.6h166.7v99.8h-288.9V1812z"/>
<path class="st1" d="M3715.7,1984.3l189.1-172.3h55.2V2277h-122.7v-238.6l-121.5,110.9l-122.1-110.3v238h-122.8V1812h55.2
	L3715.7,1984.3z"/>
<path class="st1" d="M4053.9,1812h195.9c94.2,0,171.1,76.9,171.1,171.1c0,93.6-76.3,170.5-168.6,170.5H4176V2277h-122.1V1812z
	 M4176,2048.2h75.6c37.2,0,66.9-29.1,66.9-66.3c0-37.2-29.7-66.9-66.9-66.9H4176V2048.2z"/>
<path class="st1" d="M4486.2,1812h122.1V2277h-122.1V1812z"/>
<path class="st1" d="M4971.7,2277l-71.9-123.4h-75.6V2277H4702V1812h195.9c94.2,0,171.1,76.9,171.1,171.1
	c0,49.6-21.7,94.2-55.2,125.2l98.6,168.6H4971.7z M4824.2,2048.2h75.6c37.2,0,66.9-29.1,66.9-66.3c0-37.2-29.7-66.9-66.9-66.9h-75.6
	V2048.2z"/>
<path class="st1" d="M5172.7,1812h288.9v101.1h-166.7v75.6h147.5v102.9h-147.5v85.6h166.7v99.8h-288.9V1812z"/>
<path class="st1" d="M5999.5,1954.6c0-19.2-16.1-35.3-35.3-35.3s-34.7,16.1-34.7,35.3c0,19.2,15.5,34.7,34.7,34.7
	c45.2,0,86.2,21.7,112.2,55.2c19.8,24.8,31,55.8,31,89.8c0,79.3-63.9,142.6-143.2,142.6c-79.3,0-143.2-62.6-143.2-144.5h108.5
	c0,19.8,15.5,35.3,34.7,35.3s35.3-15.5,35.3-34.7c0-19.2-16.1-35.3-35.3-35.3c-79.3,0-142.6-63.2-142.6-142.6
	s63.2-143.2,142.6-143.2c79.3,0,143.2,63.2,143.2,142.6H5999.5z"/>
<path class="st1" d="M6410.6,1812c128.4,0,232.5,104.8,232.5,233.1S6539,2277,6410.6,2277c-128.3,0-231.8-103.5-231.8-231.8
	S6282.3,1812,6410.6,1812z M6410.6,1933.5c-60.7,0-110.3,49.6-110.3,111c0,60.7,49.6,110.9,110.3,110.9c61.4,0,111-50.2,111-110.9
	C6521.6,1983.1,6472,1933.5,6410.6,1933.5z"/>
<path class="st1" d="M6728.3,1812h291.4v100.4h-169.2v75.6h149.4v103.5h-149.4V2277h-122.1V1812z"/>
<path class="st1" d="M7097.4,1811.4h366.3v121.5h-123.4v344h-122.1v-344h-120.9V1811.4z"/>
<path class="st1" d="M7886.8,2111.4l-76.9,165.5h-88L7507.4,1812h133.9l131.4,284.5l88.6-193.4h51.5l88.6,193.4l132-284.5h133.9
	L8052.3,2277h-88L7886.8,2111.4z"/>
<path class="st1" d="M8246.7,2277l217-464.9h55.2l218.8,464.9h-122.1l-28.5-60.8h-190.3l-27.9,60.8H8246.7z M8444.5,2113.3h94.8
	l-47.1-102.3L8444.5,2113.3z"/>
<path class="st1" d="M9069.6,2277l-71.9-123.4h-75.6V2277h-122.1V1812h195.9c94.2,0,171.1,76.9,171.1,171.1
	c0,49.6-21.7,94.2-55.2,125.2l98.6,168.6H9069.6z M8922.1,2048.2h75.6c37.2,0,66.9-29.1,66.9-66.3c0-37.2-29.7-66.9-66.9-66.9h-75.6
	V2048.2z"/>
<path class="st1" d="M9270.6,1812h288.9v101.1h-166.7v75.6h147.5v102.9h-147.5v85.6h166.7v99.8h-288.9V1812z"/>
<path class="st1" d="M9926.3,1812h172.4c128.3,0,232.4,104.1,232.4,232.5c0,128.3-104.1,232.4-232.4,232.4h-172.4V1812z
	 M10047.8,2155.5h51.5c60.7,0,110.3-49.6,110.3-110.3c0-60.1-49.6-109.7-110.3-109.7h-51.5V2155.5z"/>
<path class="st1" d="M10415.6,1812h288.9v101.1h-166.7v75.6h147.5v102.9h-147.5v85.6h166.7v99.8h-288.9V1812z"/>
<path class="st1" d="M11240.3,1811.4L11024,2277h-55.8l-216.9-465.5h122.7l122.1,264.7l122.8-264.7H11240.3z"/>
<path class="st1" d="M11293.9,1812h288.9v101.1H11416v75.6h147.5v102.9H11416v85.6h166.7v99.8h-288.9V1812z"/>
<path class="st1" d="M11670.4,1812h122.1v342.2h167.4V2277h-289.5V1812z"/>
<path class="st1" d="M12251.4,1812c128.4,0,232.5,104.8,232.5,233.1s-104.1,231.8-232.5,231.8c-128.3,0-231.8-103.5-231.8-231.8
	S12123.1,1812,12251.4,1812z M12251.4,1933.5c-60.7,0-110.3,49.6-110.3,111c0,60.7,49.6,110.9,110.3,110.9
	c61.4,0,111-50.2,111-110.9C12362.4,1983.1,12312.8,1933.5,12251.4,1933.5z"/>
<path class="st1" d="M12569.1,1812h195.9c94.2,0,171.1,76.9,171.1,171.1c0,93.6-76.3,170.5-168.6,170.5h-76.2V2277h-122.1V1812z
	 M12691.3,2048.2h75.6c37.2,0,66.9-29.1,66.9-66.3c0-37.2-29.7-66.9-66.9-66.9h-75.6V2048.2z"/>
<path class="st1" d="M13246.8,1984.3l189.1-172.3h55.2V2277h-122.7v-238.6l-121.5,110.9l-122.1-110.3v238H13002V1812h55.2
	L13246.8,1984.3z"/>
<path class="st1" d="M13585.1,1812h288.9v101.1h-166.7v75.6h147.5v102.9h-147.5v85.6h166.7v99.8h-288.9V1812z"/>
<path class="st1" d="M14303.1,2277l-219.4-220.1V2277h-122.1V1812h49.6l220.1,219.5V1812h122.1V2277H14303.1z"/>
<path class="st1" d="M14437.3,1811.4h366.3v121.5h-123.4v344h-122.1v-344h-120.9V1811.4z"/>
</svg>
