<?xml version="1.0" standalone="no"?>
<!DOCTYPE svg PUBLIC "-//W3C//DTD SVG 20010904//EN"
 "http://www.w3.org/TR/2001/REC-SVG-20010904/DTD/svg10.dtd">
<svg version="1.0" xmlns="http://www.w3.org/2000/svg"
 width="900.000000pt" height="900.000000pt" viewBox="0 0 900.000000 900.000000"
 preserveAspectRatio="xMidYMid meet">
<metadata>
Created by potrace 1.11, written by Peter Selinger 2001-2013
</metadata>
<g transform="translate(0.000000,900.000000) scale(0.100000,-0.100000)"
fill="#000000" stroke="none">
<path d="M409 5632 l-106 -3 1 -1152 1 -1152 378 -1 c207 -1 377 2 378 5 0 3
1 522 2 1154 l2 1147 -25 0 c-14 0 -137 1 -275 3 -137 1 -298 1 -356 -1z"/>
<path d="M1719 5632 l-76 -3 1 -1152 1 -1152 895 0 895 0 0 245 0 245 -516 3
-516 2 0 210 c0 206 1 210 21 211 12 0 217 1 457 1 l436 1 -1 256 -1 256 -455
0 -455 0 -1 186 -1 187 491 0 c270 0 502 1 516 1 l25 1 -1 243 c-1 133 -2 247
-3 252 -1 9 -1497 15 -1712 7z"/>
<path d="M6269 5630 l-24 -5 1 -1145 c1 -630 2 -1148 3 -1151 1 -9 1246 -3
1301 5 195 32 371 86 522 161 212 105 336 208 508 422 5 6 32 54 59 105 119
225 144 425 86 701 -18 88 -92 237 -170 342 -238 323 -656 531 -1125 561 -109
7 -1128 11 -1161 4z m1210 -633 c263 -67 436 -206 502 -400 17 -52 21 -191 6
-245 -47 -176 -242 -350 -452 -402 -27 -6 -59 -14 -70 -17 -11 -3 -120 -8
-242 -10 l-223 -5 0 547 0 547 228 -5 c125 -2 238 -7 251 -10z"/>
<path d="M4670 5623 c-429 -70 -717 -337 -735 -678 -15 -294 199 -565 535
-677 111 -37 160 -47 290 -54 117 -7 178 -25 223 -68 35 -33 58 -89 52 -123
-2 -10 -4 -23 -4 -30 -1 -19 -61 -82 -93 -99 -39 -20 -63 -25 -124 -25 -94 -1
-200 74 -206 144 l-2 27 -339 0 -339 0 6 -65 c29 -318 331 -586 721 -642 65
-9 254 -9 328 1 151 19 338 96 452 184 89 70 139 127 193 219 94 160 103 385
21 553 -90 186 -282 342 -505 411 -76 24 -76 24 -199 44 -16 3 -59 5 -95 6
-36 0 -86 8 -112 16 -77 25 -136 97 -131 161 0 6 1 20 2 31 2 35 77 107 128
123 127 41 280 -28 297 -134 l3 -23 334 0 334 0 -3 55 c-14 275 -261 525 -610
617 -80 21 -123 26 -247 28 -82 1 -161 1 -175 -2z"/>
</g>
</svg>
